<svg id="svg2985" xmlns="http://www.w3.org/2000/svg" viewBox="0 0 350 250"><style>.st0{fill:url(#SVGID_1_);} .st1{fill:#E7E7E7;} .st2{fill:#FFFFFF;}</style><radialGradient id="SVGID_1_" cx="61.445" cy="240.735" r="326.153" gradientTransform="matrix(1 0 0 -1 0 252)" gradientUnits="userSpaceOnUse"><stop offset="0" stop-color="#9DD5F6"/><stop offset=".071" stop-color="#98D3F5"/><stop offset=".158" stop-color="#89CEF3"/><stop offset=".252" stop-color="#70C6EF"/><stop offset=".351" stop-color="#4EBBEA"/><stop offset=".455" stop-color="#23ADE3"/><stop offset=".5" stop-color="#0DA6E0"/><stop offset="1" stop-color="#2E77BC"/></radialGradient><path class="st0" d="M315 5H35C18.4 5 5 18.4 5 35v180c0 16.6 13.4 30 30 30h280c16.6 0 30-13.4 30-30V35c0-16.6-13.4-30-30-30z"/><path class="st1" d="M320 10c11 0 20 9 20 20v190c0 11-9 20-20 20H30c-11 0-20-9-20-20V30c0-11 9-20 20-20h290m0-10H30C13.4 0 0 13.4 0 30v190c0 16.6 13.4 30 30 30h290c16.6 0 30-13.4 30-30V30c0-16.6-13.4-30-30-30z"/><g id="Layer_1_1_"><path class="st2" d="M69.4 128.5h17.2l-8.6-21zM204.1 109.5v9.6h27.8v10.8h-27.8v10.6h31.1l14.4-15.7-13.7-15.3z"/><path class="st2" d="M314.2 88h-45.6l-10.4 11.3-9.7-11.3h-94.2l-8.3 19-8.5-19H98.6v8.8L94.3 88H61.4l-31.9 73.8h38.1l4.9-11.8h10.8l4.8 11.8h42.4v-8.9l3.8 9.1h22l3.8-9.1v9.1H247l10.7-11.5 10.2 11.5h44.8l-33-36.7L314.2 88zm-131.7 63.3h-12.9v-41.5l-18.3 41.5H140l-18.3-41.5v41.5H96l-4.8-11.8H64.8l-4.9 11.8H46.1l22.6-52.9h18.8l21.5 50.1V98.4h20.6l16.6 35.9 15.2-35.9h21.1v52.9zm107.3.2h-16.4L257.8 134l-16.1 17.5h-50.1v-53h50.9l15.6 17.4 16.1-17.4h16.6L266.2 125l23.6 26.5z"/></g></svg>